<svg xmlns="http://www.w3.org/2000/svg" xmlns:xlink="http://www.w3.org/1999/xlink" width="500" zoomAndPan="magnify" viewBox="0 0 375 374.999991" height="500" preserveAspectRatio="xMidYMid meet" version="1.0"><defs><clipPath id="0560f27ec9"><path d="M 37.757812 110.972656 L 67.757812 110.972656 L 67.757812 242.222656 L 37.757812 242.222656 Z M 37.757812 110.972656 " clip-rule="nonzero"/></clipPath><clipPath id="0a7bc6fff7"><path d="M 86.023438 110.972656 L 116.023438 110.972656 L 116.023438 242.222656 L 86.023438 242.222656 Z M 86.023438 110.972656 " clip-rule="nonzero"/></clipPath><clipPath id="415ce8b2cc"><path d="M 134.347656 110.96875 L 164.347656 110.96875 L 164.347656 242.96875 L 134.347656 242.96875 Z M 134.347656 110.96875 " clip-rule="nonzero"/></clipPath><clipPath id="9496129a2f"><path d="M 180.429688 113.480469 L 311.679688 113.480469 L 311.679688 143.480469 L 180.429688 143.480469 Z M 180.429688 113.480469 " clip-rule="nonzero"/></clipPath><clipPath id="1b38275f24"><path d="M 180.429688 161.742188 L 311.679688 161.742188 L 311.679688 191.742188 L 180.429688 191.742188 Z M 180.429688 161.742188 " clip-rule="nonzero"/></clipPath><clipPath id="5d67548f9c"><path d="M 179.6875 210.066406 L 311.6875 210.066406 L 311.6875 240.066406 L 179.6875 240.066406 Z M 179.6875 210.066406 " clip-rule="nonzero"/></clipPath></defs><g clip-path="url(#0560f27ec9)"><path fill="#000000" d="M 67.746094 110.976562 L 67.746094 242.21875 L 37.742188 242.21875 L 37.742188 110.976562 Z M 67.746094 110.976562 " fill-opacity="1" fill-rule="nonzero"/></g><g clip-path="url(#0a7bc6fff7)"><path fill="#000000" d="M 116.007812 110.976562 L 116.007812 242.21875 L 86.007812 242.21875 L 86.007812 110.976562 Z M 116.007812 110.976562 " fill-opacity="1" fill-rule="nonzero"/></g><g clip-path="url(#415ce8b2cc)"><path fill="#000000" d="M 164.335938 110.972656 L 164.335938 242.964844 L 134.335938 242.964844 L 134.335938 110.972656 Z M 164.335938 110.972656 " fill-opacity="1" fill-rule="nonzero"/></g><g clip-path="url(#9496129a2f)"><path fill="#000000" d="M 311.675781 143.464844 L 180.433594 143.464844 L 180.433594 113.464844 L 311.675781 113.464844 Z M 311.675781 143.464844 " fill-opacity="1" fill-rule="nonzero"/></g><g clip-path="url(#1b38275f24)"><path fill="#000000" d="M 311.675781 191.730469 L 180.433594 191.730469 L 180.433594 161.730469 L 311.675781 161.730469 Z M 311.675781 191.730469 " fill-opacity="1" fill-rule="nonzero"/></g><g clip-path="url(#5d67548f9c)"><path fill="#000000" d="M 311.683594 240.054688 L 179.691406 240.054688 L 179.691406 210.054688 L 311.683594 210.054688 Z M 311.683594 240.054688 " fill-opacity="1" fill-rule="nonzero"/></g></svg>